<svg width="350" height="83" viewBox="0 0 350 83" fill="none" xmlns="http://www.w3.org/2000/svg">
<rect x="0.75" y="0.75" width="348.5" height="47.5" rx="17.25" stroke="black" stroke-opacity="0.25" stroke-width="1.5"/>
<path d="M30.3603 24.7273C30.3603 26.2614 30.0833 27.5871 29.5293 28.7045C28.9753 29.822 28.2154 30.6837 27.2495 31.2898C26.2836 31.8958 25.1803 32.1989 23.9398 32.1989C22.6993 32.1989 21.5961 31.8958 20.6301 31.2898C19.6642 30.6837 18.9043 29.822 18.3503 28.7045C17.7963 27.5871 17.5194 26.2614 17.5194 24.7273C17.5194 23.1932 17.7963 21.8674 18.3503 20.75C18.9043 19.6326 19.6642 18.7708 20.6301 18.1648C21.5961 17.5587 22.6993 17.2557 23.9398 17.2557C25.1803 17.2557 26.2836 17.5587 27.2495 18.1648C28.2154 18.7708 28.9753 19.6326 29.5293 20.75C30.0833 21.8674 30.3603 23.1932 30.3603 24.7273ZM28.6557 24.7273C28.6557 23.4678 28.445 22.4048 28.0236 21.5384C27.6069 20.6719 27.0411 20.0161 26.3262 19.571C25.6159 19.1259 24.8205 18.9034 23.9398 18.9034C23.0591 18.9034 22.2613 19.1259 21.5463 19.571C20.8361 20.0161 20.2703 20.6719 19.8489 21.5384C19.4322 22.4048 19.2239 23.4678 19.2239 24.7273C19.2239 25.9867 19.4322 27.0497 19.8489 27.9162C20.2703 28.7827 20.8361 29.4384 21.5463 29.8835C22.2613 30.3286 23.0591 30.5511 23.9398 30.5511C24.8205 30.5511 25.6159 30.3286 26.3262 29.8835C27.0411 29.4384 27.6069 28.7827 28.0236 27.9162C28.445 27.0497 28.6557 25.9867 28.6557 24.7273ZM34.5571 28.0227L34.5287 25.9489H34.8696L39.6424 21.0909H41.7162L36.631 26.233H36.489L34.5571 28.0227ZM32.9946 32V17.4545H34.6708V32H32.9946ZM39.9265 32L35.6651 26.6023L36.8583 25.4375L42.0571 32H39.9265ZM46.2735 30.0114L46.1599 30.7784C46.0794 31.3182 45.9563 31.8958 45.7906 32.5114C45.6296 33.1269 45.4615 33.7069 45.2863 34.2514C45.1111 34.7959 44.9667 35.2292 44.8531 35.5511H43.5747C43.6362 35.2481 43.7167 34.848 43.8162 34.3509C43.9156 33.8537 44.015 33.2973 44.1145 32.6818C44.2186 32.071 44.3038 31.446 44.3701 30.8068L44.4554 30.0114H46.2735ZM57.3395 17.4545V32H54.7046V17.4545H57.3395ZM67.0916 32L64.0092 21.0909H66.6299L68.5476 28.7614H68.647L70.6072 21.0909H73.1995L75.1598 28.7188H75.2663L77.1555 21.0909H79.7833L76.6939 32H74.0163L71.9708 24.6278H71.8217L69.7762 32H67.0916ZM81.4784 32V21.0909H84.0495V32H81.4784ZM82.7711 19.5426C82.3639 19.5426 82.0135 19.4077 81.7199 19.1378C81.4264 18.8632 81.2796 18.5341 81.2796 18.1506C81.2796 17.7623 81.4264 17.4332 81.7199 17.1634C82.0135 16.8887 82.3639 16.7514 82.7711 16.7514C83.183 16.7514 83.5334 16.8887 83.8222 17.1634C84.1158 17.4332 84.2625 17.7623 84.2625 18.1506C84.2625 18.5341 84.1158 18.8632 83.8222 19.1378C83.5334 19.4077 83.183 19.5426 82.7711 19.5426ZM89.1643 17.4545V32H86.5933V17.4545H89.1643ZM94.2792 17.4545V32H91.7081V17.4545H94.2792ZM103.935 32L100.853 21.0909H103.474L105.391 28.7614H105.491L107.451 21.0909H110.043L112.004 28.7188H112.11L113.999 21.0909H116.627L113.538 32H110.86L108.815 24.6278H108.665L106.62 32H103.935ZM122.768 32.2131C121.703 32.2131 120.78 31.9787 119.998 31.5099C119.217 31.0412 118.611 30.3854 118.18 29.5426C117.754 28.6998 117.541 27.715 117.541 26.5881C117.541 25.4612 117.754 24.474 118.18 23.6264C118.611 22.7789 119.217 22.1207 119.998 21.652C120.78 21.1832 121.703 20.9489 122.768 20.9489C123.834 20.9489 124.757 21.1832 125.538 21.652C126.319 22.1207 126.923 22.7789 127.349 23.6264C127.78 24.474 127.995 25.4612 127.995 26.5881C127.995 27.715 127.78 28.6998 127.349 29.5426C126.923 30.3854 126.319 31.0412 125.538 31.5099C124.757 31.9787 123.834 32.2131 122.768 32.2131ZM122.782 30.1534C123.36 30.1534 123.843 29.9948 124.231 29.6776C124.62 29.3556 124.908 28.9247 125.098 28.3849C125.292 27.8452 125.389 27.2438 125.389 26.581C125.389 25.9134 125.292 25.3097 125.098 24.7699C124.908 24.2254 124.62 23.7921 124.231 23.4702C123.843 23.1482 123.36 22.9872 122.782 22.9872C122.191 22.9872 121.698 23.1482 121.305 23.4702C120.917 23.7921 120.626 24.2254 120.432 24.7699C120.242 25.3097 120.147 25.9134 120.147 26.581C120.147 27.2438 120.242 27.8452 120.432 28.3849C120.626 28.9247 120.917 29.3556 121.305 29.6776C121.698 29.9948 122.191 30.1534 122.782 30.1534ZM130.078 32V21.0909H132.571V22.9091H132.684C132.883 22.2794 133.224 21.794 133.707 21.4531C134.195 21.1075 134.751 20.9347 135.376 20.9347C135.518 20.9347 135.677 20.9418 135.852 20.956C136.032 20.9654 136.181 20.982 136.299 21.0057V23.3707C136.19 23.3329 136.018 23.2997 135.781 23.2713C135.549 23.2382 135.324 23.2216 135.106 23.2216C134.637 23.2216 134.216 23.3234 133.842 23.527C133.473 23.7259 133.181 24.0028 132.968 24.358C132.755 24.7131 132.649 25.1226 132.649 25.5866V32H130.078ZM140.251 28.5767L140.244 25.473H140.656L144.576 21.0909H147.581L142.758 26.4602H142.226L140.251 28.5767ZM137.907 32V17.4545H140.478V32H137.907ZM144.754 32L141.203 27.0355L142.936 25.2244L147.829 32H144.754ZM158.814 32.2131C157.748 32.2131 156.825 31.9787 156.044 31.5099C155.262 31.0412 154.656 30.3854 154.225 29.5426C153.799 28.6998 153.586 27.715 153.586 26.5881C153.586 25.4612 153.799 24.474 154.225 23.6264C154.656 22.7789 155.262 22.1207 156.044 21.652C156.825 21.1832 157.748 20.9489 158.814 20.9489C159.879 20.9489 160.802 21.1832 161.583 21.652C162.365 22.1207 162.968 22.7789 163.394 23.6264C163.825 24.474 164.041 25.4612 164.041 26.5881C164.041 27.715 163.825 28.6998 163.394 29.5426C162.968 30.3854 162.365 31.0412 161.583 31.5099C160.802 31.9787 159.879 32.2131 158.814 32.2131ZM158.828 30.1534C159.405 30.1534 159.888 29.9948 160.277 29.6776C160.665 29.3556 160.954 28.9247 161.143 28.3849C161.337 27.8452 161.434 27.2438 161.434 26.581C161.434 25.9134 161.337 25.3097 161.143 24.7699C160.954 24.2254 160.665 23.7921 160.277 23.4702C159.888 23.1482 159.405 22.9872 158.828 22.9872C158.236 22.9872 157.743 23.1482 157.35 23.4702C156.962 23.7921 156.671 24.2254 156.477 24.7699C156.287 25.3097 156.193 25.9134 156.193 26.581C156.193 27.2438 156.287 27.8452 156.477 28.3849C156.671 28.9247 156.962 29.3556 157.35 29.6776C157.743 29.9948 158.236 30.1534 158.828 30.1534ZM168.694 25.608V32H166.123V21.0909H168.58V22.9446H168.708C168.959 22.3338 169.359 21.8485 169.908 21.4886C170.462 21.1288 171.147 20.9489 171.961 20.9489C172.714 20.9489 173.37 21.1098 173.928 21.4318C174.492 21.7538 174.927 22.2202 175.235 22.831C175.548 23.4418 175.702 24.1828 175.697 25.054V32H173.126V25.4517C173.126 24.7225 172.936 24.152 172.558 23.7401C172.184 23.3281 171.665 23.1222 171.002 23.1222C170.552 23.1222 170.152 23.2216 169.802 23.4205C169.456 23.6146 169.184 23.8963 168.985 24.2656C168.791 24.6349 168.694 25.0824 168.694 25.608ZM183.071 32V21.0909H185.642V32H183.071ZM184.364 19.5426C183.957 19.5426 183.606 19.4077 183.313 19.1378C183.019 18.8632 182.873 18.5341 182.873 18.1506C182.873 17.7623 183.019 17.4332 183.313 17.1634C183.606 16.8887 183.957 16.7514 184.364 16.7514C184.776 16.7514 185.126 16.8887 185.415 17.1634C185.709 17.4332 185.856 17.7623 185.856 18.1506C185.856 18.5341 185.709 18.8632 185.415 19.1378C185.126 19.4077 184.776 19.5426 184.364 19.5426ZM193.634 21.0909V23.0795H187.362V21.0909H193.634ZM188.911 18.4773H191.482V28.7188C191.482 29.0644 191.534 29.3295 191.638 29.5142C191.747 29.6941 191.889 29.8172 192.064 29.8835C192.239 29.9498 192.433 29.983 192.646 29.983C192.807 29.983 192.954 29.9711 193.087 29.9474C193.224 29.9238 193.328 29.9025 193.399 29.8835L193.833 31.8935C193.695 31.9408 193.499 31.9929 193.243 32.0497C192.992 32.1065 192.684 32.1397 192.32 32.1491C191.676 32.1681 191.096 32.071 190.58 31.858C190.064 31.6402 189.654 31.304 189.351 30.8494C189.053 30.3949 188.906 29.8267 188.911 29.1449V18.4773ZM200.545 32V21.0909H203.038V22.9091H203.151C203.35 22.2794 203.691 21.794 204.174 21.4531C204.662 21.1075 205.218 20.9347 205.843 20.9347C205.985 20.9347 206.144 20.9418 206.319 20.956C206.499 20.9654 206.648 20.982 206.766 21.0057V23.3707C206.658 23.3329 206.485 23.2997 206.248 23.2713C206.016 23.2382 205.791 23.2216 205.573 23.2216C205.105 23.2216 204.683 23.3234 204.309 23.527C203.94 23.7259 203.649 24.0028 203.435 24.358C203.222 24.7131 203.116 25.1226 203.116 25.5866V32H200.545ZM208.375 32V21.0909H210.946V32H208.375ZM209.667 19.5426C209.26 19.5426 208.91 19.4077 208.616 19.1378C208.322 18.8632 208.176 18.5341 208.176 18.1506C208.176 17.7623 208.322 17.4332 208.616 17.1634C208.91 16.8887 209.26 16.7514 209.667 16.7514C210.079 16.7514 210.429 16.8887 210.718 17.1634C211.012 17.4332 211.159 17.7623 211.159 18.1506C211.159 18.5341 211.012 18.8632 210.718 19.1378C210.429 19.4077 210.079 19.5426 209.667 19.5426ZM218.234 36.3182C217.31 36.3182 216.517 36.1927 215.854 35.9418C215.192 35.6955 214.659 35.3641 214.256 34.9474C213.854 34.5308 213.575 34.0691 213.418 33.5625L215.734 33.0014C215.838 33.2145 215.989 33.4252 216.188 33.6335C216.387 33.8466 216.655 34.0218 216.991 34.1591C217.332 34.3011 217.76 34.3722 218.276 34.3722C219.005 34.3722 219.609 34.1946 220.087 33.8395C220.566 33.4891 220.805 32.9115 220.805 32.1065V30.0398H220.677C220.544 30.3049 220.35 30.5772 220.095 30.8565C219.844 31.1359 219.51 31.3703 219.093 31.5597C218.681 31.7491 218.163 31.8438 217.538 31.8438C216.7 31.8438 215.94 31.6473 215.258 31.2543C214.581 30.8565 214.041 30.2647 213.639 29.4787C213.241 28.688 213.042 27.6984 213.042 26.5099C213.042 25.312 213.241 24.3011 213.639 23.4773C214.041 22.6487 214.583 22.0213 215.265 21.5952C215.947 21.1643 216.707 20.9489 217.545 20.9489C218.184 20.9489 218.71 21.0578 219.121 21.2756C219.538 21.4886 219.87 21.7467 220.116 22.0497C220.362 22.348 220.549 22.6297 220.677 22.8949H220.819V21.0909H223.354V32.1776C223.354 33.1103 223.132 33.8821 222.687 34.4929C222.242 35.1037 221.633 35.5606 220.862 35.8636C220.09 36.1667 219.214 36.3182 218.234 36.3182ZM218.255 29.8267C218.8 29.8267 219.264 29.6941 219.647 29.429C220.031 29.1638 220.322 28.7827 220.521 28.2855C220.72 27.7884 220.819 27.1918 220.819 26.4957C220.819 25.8092 220.72 25.2079 220.521 24.6918C220.327 24.1757 220.038 23.7756 219.654 23.4915C219.275 23.2027 218.809 23.0582 218.255 23.0582C217.682 23.0582 217.204 23.2074 216.82 23.5057C216.437 23.804 216.148 24.2135 215.954 24.7344C215.76 25.2505 215.663 25.8376 215.663 26.4957C215.663 27.1634 215.76 27.7481 215.954 28.25C216.153 28.7472 216.444 29.1354 216.827 29.4148C217.216 29.6894 217.692 29.8267 218.255 29.8267ZM228.46 25.608V32H225.889V17.4545H228.404V22.9446H228.531C228.787 22.3291 229.182 21.8437 229.718 21.4886C230.257 21.1288 230.944 20.9489 231.777 20.9489C232.535 20.9489 233.195 21.1075 233.759 21.4247C234.322 21.742 234.758 22.206 235.066 22.8168C235.378 23.4276 235.534 24.1733 235.534 25.054V32H232.963V25.4517C232.963 24.7178 232.774 24.1473 232.395 23.7401C232.021 23.3281 231.495 23.1222 230.818 23.1222C230.364 23.1222 229.957 23.2216 229.597 23.4205C229.242 23.6146 228.962 23.8963 228.759 24.2656C228.56 24.6349 228.46 25.0824 228.46 25.608ZM243.502 21.0909V23.0795H237.231V21.0909H243.502ZM238.779 18.4773H241.35V28.7188C241.35 29.0644 241.403 29.3295 241.507 29.5142C241.616 29.6941 241.758 29.8172 241.933 29.8835C242.108 29.9498 242.302 29.983 242.515 29.983C242.676 29.983 242.823 29.9711 242.956 29.9474C243.093 29.9238 243.197 29.9025 243.268 29.8835L243.701 31.8935C243.564 31.9408 243.368 31.9929 243.112 32.0497C242.861 32.1065 242.553 32.1397 242.189 32.1491C241.545 32.1681 240.965 32.071 240.448 31.858C239.932 31.6402 239.523 31.304 239.22 30.8494C238.921 30.3949 238.775 29.8267 238.779 29.1449V18.4773ZM252.985 25.608V32H250.414V21.0909H252.871V22.9446H252.999C253.25 22.3338 253.65 21.8485 254.199 21.4886C254.753 21.1288 255.437 20.9489 256.252 20.9489C257.005 20.9489 257.66 21.1098 258.219 21.4318C258.782 21.7538 259.218 22.2202 259.526 22.831C259.838 23.4418 259.992 24.1828 259.987 25.054V32H257.416V25.4517C257.416 24.7225 257.227 24.152 256.848 23.7401C256.474 23.3281 255.956 23.1222 255.293 23.1222C254.843 23.1222 254.443 23.2216 254.093 23.4205C253.747 23.6146 253.475 23.8963 253.276 24.2656C253.082 24.6349 252.985 25.0824 252.985 25.608ZM267.26 32.2131C266.194 32.2131 265.271 31.9787 264.49 31.5099C263.708 31.0412 263.102 30.3854 262.672 29.5426C262.245 28.6998 262.032 27.715 262.032 26.5881C262.032 25.4612 262.245 24.474 262.672 23.6264C263.102 22.7789 263.708 22.1207 264.49 21.652C265.271 21.1832 266.194 20.9489 267.26 20.9489C268.325 20.9489 269.248 21.1832 270.03 21.652C270.811 22.1207 271.414 22.7789 271.841 23.6264C272.271 24.474 272.487 25.4612 272.487 26.5881C272.487 27.715 272.271 28.6998 271.841 29.5426C271.414 30.3854 270.811 31.0412 270.03 31.5099C269.248 31.9787 268.325 32.2131 267.26 32.2131ZM267.274 30.1534C267.851 30.1534 268.334 29.9948 268.723 29.6776C269.111 29.3556 269.4 28.9247 269.589 28.3849C269.783 27.8452 269.88 27.2438 269.88 26.581C269.88 25.9134 269.783 25.3097 269.589 24.7699C269.4 24.2254 269.111 23.7921 268.723 23.4702C268.334 23.1482 267.851 22.9872 267.274 22.9872C266.682 22.9872 266.19 23.1482 265.797 23.4702C265.408 23.7921 265.117 24.2254 264.923 24.7699C264.734 25.3097 264.639 25.9134 264.639 26.581C264.639 27.2438 264.734 27.8452 264.923 28.3849C265.117 28.9247 265.408 29.3556 265.797 29.6776C266.19 29.9948 266.682 30.1534 267.274 30.1534ZM276.508 32L273.426 21.0909H276.046L277.964 28.7614H278.063L280.024 21.0909H282.616L284.576 28.7188H284.683L286.572 21.0909H289.2L286.11 32H283.433L281.387 24.6278H281.238L279.193 32H276.508Z" fill="black"/>
<path d="M56.8704 42.3864V54.75H54.6307V42.3864H56.8704ZM67.2907 54.9311C66.3851 54.9311 65.6003 54.7319 64.9363 54.3335C64.2722 53.935 63.757 53.3776 63.3908 52.6612C63.0286 51.9448 62.8475 51.1077 62.8475 50.1499C62.8475 49.192 63.0286 48.3529 63.3908 47.6325C63.757 46.912 64.2722 46.3526 64.9363 45.9542C65.6003 45.5558 66.3851 45.3565 67.2907 45.3565C68.1962 45.3565 68.981 45.5558 69.6451 45.9542C70.3091 46.3526 70.8223 46.912 71.1845 47.6325C71.5507 48.3529 71.7338 49.192 71.7338 50.1499C71.7338 51.1077 71.5507 51.9448 71.1845 52.6612C70.8223 53.3776 70.3091 53.935 69.6451 54.3335C68.981 54.7319 68.1962 54.9311 67.2907 54.9311ZM67.3027 53.1804C67.7937 53.1804 68.2042 53.0456 68.5343 52.7759C68.8643 52.5022 69.1098 52.136 69.2708 51.6772C69.4358 51.2184 69.5183 50.7073 69.5183 50.1438C69.5183 49.5763 69.4358 49.0632 69.2708 48.6044C69.1098 48.1416 68.8643 47.7733 68.5343 47.4996C68.2042 47.226 67.7937 47.0891 67.3027 47.0891C66.7997 47.0891 66.3811 47.226 66.0471 47.4996C65.717 47.7733 65.4695 48.1416 65.3045 48.6044C65.1435 49.0632 65.063 49.5763 65.063 50.1438C65.063 50.7073 65.1435 51.2184 65.3045 51.6772C65.4695 52.136 65.717 52.5022 66.0471 52.7759C66.3811 53.0456 66.7997 53.1804 67.3027 53.1804ZM75.6891 49.3168V54.75H73.5037V45.4773H75.5925V47.0529H75.7011C75.9144 46.5337 76.2545 46.1212 76.7214 45.8153C77.1923 45.5095 77.7738 45.3565 78.466 45.3565C79.106 45.3565 79.6634 45.4934 80.1383 45.767C80.6172 46.0407 80.9875 46.4371 81.2491 46.9563C81.5147 47.4755 81.6455 48.1054 81.6415 48.8459V54.75H79.4561V49.1839C79.4561 48.5642 79.2951 48.0792 78.9731 47.729C78.6552 47.3789 78.2145 47.2038 77.6511 47.2038C77.2687 47.2038 76.9286 47.2884 76.6308 47.4574C76.337 47.6224 76.1056 47.8619 75.9366 48.1758C75.7716 48.4897 75.6891 48.87 75.6891 49.3168ZM85.9634 42.3864V54.75H83.7781V42.3864H85.9634ZM89.484 58.2273C89.1862 58.2273 88.9105 58.2031 88.6569 58.1548C88.4074 58.1106 88.2082 58.0582 88.0593 57.9979L88.5664 56.2955C88.8843 56.388 89.1681 56.4323 89.4176 56.4283C89.6671 56.4242 89.8865 56.3458 90.0756 56.1928C90.2688 56.0439 90.4318 55.7944 90.5646 55.4442L90.7517 54.9432L87.3892 45.4773H89.7074L91.8444 52.4801H91.941L94.0841 45.4773H96.4084L92.6956 55.8729C92.5226 56.3639 92.2932 56.7844 92.0074 57.1346C91.7217 57.4888 91.3715 57.7584 90.957 57.9435C90.5465 58.1327 90.0555 58.2273 89.484 58.2273ZM104.153 49.3168V54.75H101.967V42.3864H104.104V47.0529H104.213C104.43 46.5297 104.767 46.1172 105.221 45.8153C105.68 45.5095 106.264 45.3565 106.972 45.3565C107.616 45.3565 108.177 45.4914 108.656 45.761C109.135 46.0307 109.506 46.4251 109.767 46.9442C110.033 47.4634 110.166 48.0973 110.166 48.8459V54.75H107.98V49.1839C107.98 48.5601 107.819 48.0752 107.497 47.729C107.179 47.3789 106.733 47.2038 106.157 47.2038C105.771 47.2038 105.425 47.2884 105.119 47.4574C104.817 47.6224 104.579 47.8619 104.406 48.1758C104.237 48.4897 104.153 48.87 104.153 49.3168ZM114.977 54.9371C114.389 54.9371 113.86 54.8325 113.389 54.6232C112.922 54.4099 112.552 54.096 112.278 53.6815C112.008 53.2669 111.874 52.7558 111.874 52.1481C111.874 51.6249 111.97 51.1922 112.163 50.8501C112.356 50.508 112.62 50.2344 112.954 50.0291C113.288 49.8239 113.664 49.6689 114.083 49.5643C114.506 49.4556 114.942 49.3771 115.393 49.3288C115.936 49.2725 116.377 49.2222 116.715 49.1779C117.053 49.1296 117.299 49.0572 117.452 48.9606C117.609 48.86 117.687 48.705 117.687 48.4957V48.4595C117.687 48.0047 117.552 47.6526 117.283 47.4031C117.013 47.1535 116.625 47.0288 116.117 47.0288C115.582 47.0288 115.158 47.1455 114.844 47.3789C114.534 47.6123 114.325 47.888 114.216 48.206L112.175 47.9162C112.336 47.3527 112.602 46.8819 112.972 46.5036C113.343 46.1212 113.795 45.8355 114.331 45.6463C114.866 45.4531 115.457 45.3565 116.105 45.3565C116.552 45.3565 116.997 45.4089 117.44 45.5135C117.882 45.6181 118.287 45.7912 118.653 46.0327C119.019 46.2701 119.313 46.5941 119.534 47.0046C119.76 47.4151 119.872 47.9283 119.872 48.544V54.75H117.772V53.4762H117.699C117.566 53.7338 117.379 53.9753 117.138 54.2006C116.9 54.422 116.6 54.6011 116.238 54.7379C115.88 54.8707 115.459 54.9371 114.977 54.9371ZM115.544 53.3313C115.983 53.3313 116.363 53.2448 116.685 53.0717C117.007 52.8946 117.254 52.6612 117.427 52.3714C117.605 52.0817 117.693 51.7657 117.693 51.4237V50.331C117.625 50.3873 117.508 50.4396 117.343 50.4879C117.182 50.5362 117.001 50.5785 116.8 50.6147C116.598 50.6509 116.399 50.6831 116.202 50.7113C116.005 50.7395 115.834 50.7636 115.689 50.7837C115.363 50.828 115.071 50.9004 114.814 51.0011C114.556 51.1017 114.353 51.2425 114.204 51.4237C114.055 51.6007 113.98 51.8301 113.98 52.1119C113.98 52.5143 114.127 52.8182 114.421 53.0234C114.715 53.2287 115.089 53.3313 115.544 53.3313ZM129.936 45.4773L126.633 54.75H124.219L120.916 45.4773H123.247L125.378 52.3654H125.474L127.611 45.4773H129.936ZM135.152 54.9311C134.223 54.9311 133.42 54.7379 132.744 54.3516C132.072 53.9612 131.554 53.4098 131.192 52.6974C130.83 51.9811 130.649 51.1379 130.649 50.168C130.649 49.2141 130.83 48.377 131.192 47.6566C131.558 46.9322 132.07 46.3687 132.726 45.9663C133.382 45.5598 134.152 45.3565 135.038 45.3565C135.609 45.3565 136.149 45.4491 136.656 45.6342C137.167 45.8153 137.618 46.0971 138.008 46.4794C138.402 46.8617 138.712 47.3487 138.938 47.9403C139.163 48.5279 139.276 49.2282 139.276 50.0412V50.7113H131.675V49.2383H137.181C137.177 48.8197 137.086 48.4474 136.909 48.1214C136.732 47.7914 136.485 47.5318 136.167 47.3427C135.853 47.1535 135.487 47.0589 135.068 47.0589C134.621 47.0589 134.229 47.1676 133.891 47.3849C133.553 47.5982 133.289 47.88 133.1 48.2301C132.915 48.5762 132.82 48.9566 132.816 49.3711V50.657C132.816 51.1963 132.915 51.6591 133.112 52.0455C133.309 52.4278 133.585 52.7216 133.939 52.9268C134.293 53.1281 134.708 53.2287 135.183 53.2287C135.501 53.2287 135.788 53.1844 136.046 53.0959C136.304 53.0033 136.527 52.8685 136.716 52.6914C136.905 52.5143 137.048 52.295 137.145 52.0334L139.185 52.2628C139.056 52.8021 138.811 53.273 138.449 53.6754C138.09 54.0739 137.632 54.3838 137.072 54.6051C136.513 54.8224 135.873 54.9311 135.152 54.9311ZM149.802 45.4773V47.1676H144.471V45.4773H149.802ZM145.787 43.2557H147.972V51.9609C147.972 52.2547 148.017 52.4801 148.105 52.6371C148.198 52.79 148.319 52.8946 148.467 52.951C148.616 53.0073 148.781 53.0355 148.963 53.0355C149.099 53.0355 149.224 53.0254 149.337 53.0053C149.454 52.9852 149.542 52.9671 149.602 52.951L149.971 54.6594C149.854 54.6997 149.687 54.744 149.47 54.7923C149.256 54.8406 148.995 54.8687 148.685 54.8768C148.137 54.8929 147.644 54.8104 147.206 54.6293C146.767 54.4441 146.419 54.1584 146.161 53.772C145.908 53.3857 145.783 52.9027 145.787 52.3232V43.2557ZM151.544 54.75V45.4773H153.73V54.75H151.544ZM152.643 44.1612C152.297 44.1612 151.999 44.0465 151.75 43.8171C151.5 43.5837 151.375 43.304 151.375 42.978C151.375 42.648 151.5 42.3683 151.75 42.1388C151.999 41.9054 152.297 41.7887 152.643 41.7887C152.993 41.7887 153.291 41.9054 153.536 42.1388C153.786 42.3683 153.911 42.648 153.911 42.978C153.911 43.304 153.786 43.5837 153.536 43.8171C153.291 44.0465 152.993 44.1612 152.643 44.1612ZM155.892 54.75V45.4773H157.981V47.0529H158.089C158.283 46.5217 158.603 46.1071 159.049 45.8093C159.496 45.5075 160.029 45.3565 160.649 45.3565C161.277 45.3565 161.806 45.5095 162.237 45.8153C162.671 46.1172 162.977 46.5297 163.154 47.0529H163.251C163.456 46.5378 163.802 46.1272 164.289 45.8214C164.78 45.5115 165.362 45.3565 166.034 45.3565C166.887 45.3565 167.583 45.6262 168.123 46.1655C168.662 46.7048 168.932 47.4916 168.932 48.5259V54.75H166.74V48.864C166.74 48.2885 166.587 47.8679 166.281 47.6023C165.976 47.3326 165.601 47.1978 165.159 47.1978C164.631 47.1978 164.219 47.3628 163.921 47.6928C163.627 48.0188 163.48 48.4434 163.48 48.9666V54.75H161.337V48.7734C161.337 48.2945 161.192 47.9122 160.903 47.6264C160.617 47.3407 160.243 47.1978 159.78 47.1978C159.466 47.1978 159.18 47.2783 158.922 47.4393C158.665 47.5962 158.46 47.8196 158.307 48.1094C158.154 48.3951 158.077 48.7292 158.077 49.1115V54.75H155.892ZM175.169 54.9311C174.239 54.9311 173.436 54.7379 172.76 54.3516C172.088 53.9612 171.571 53.4098 171.209 52.6974C170.846 51.9811 170.665 51.1379 170.665 50.168C170.665 49.2141 170.846 48.377 171.209 47.6566C171.575 46.9322 172.086 46.3687 172.742 45.9663C173.398 45.5598 174.169 45.3565 175.054 45.3565C175.626 45.3565 176.165 45.4491 176.672 45.6342C177.183 45.8153 177.634 46.0971 178.024 46.4794C178.419 46.8617 178.729 47.3487 178.954 47.9403C179.179 48.5279 179.292 49.2282 179.292 50.0412V50.7113H171.692V49.2383H177.197C177.193 48.8197 177.103 48.4474 176.926 48.1214C176.749 47.7914 176.501 47.5318 176.183 47.3427C175.869 47.1535 175.503 47.0589 175.084 47.0589C174.638 47.0589 174.245 47.1676 173.907 47.3849C173.569 47.5982 173.305 47.88 173.116 48.2301C172.931 48.5762 172.837 48.9566 172.833 49.3711V50.657C172.833 51.1963 172.931 51.6591 173.128 52.0455C173.326 52.4278 173.601 52.7216 173.955 52.9268C174.31 53.1281 174.724 53.2287 175.199 53.2287C175.517 53.2287 175.805 53.1844 176.062 53.0959C176.32 53.0033 176.543 52.8685 176.732 52.6914C176.922 52.5143 177.064 52.295 177.161 52.0334L179.202 52.2628C179.073 52.8021 178.827 53.273 178.465 53.6754C178.107 54.0739 177.648 54.3838 177.089 54.6051C176.529 54.8224 175.889 54.9311 175.169 54.9311ZM185.164 54.75V53.1321L189.456 48.9244C189.866 48.5098 190.208 48.1416 190.482 47.8196C190.756 47.4976 190.961 47.1857 191.098 46.8839C191.235 46.582 191.303 46.2601 191.303 45.918C191.303 45.5276 191.215 45.1935 191.037 44.9158C190.86 44.6341 190.617 44.4168 190.307 44.2638C189.997 44.1109 189.645 44.0344 189.251 44.0344C188.844 44.0344 188.488 44.119 188.182 44.288C187.876 44.453 187.639 44.6884 187.47 44.9943C187.305 45.3002 187.222 45.6644 187.222 46.087H185.091C185.091 45.3022 185.27 44.62 185.628 44.0405C185.987 43.4609 186.48 43.0122 187.107 42.6942C187.739 42.3763 188.464 42.2173 189.281 42.2173C190.11 42.2173 190.838 42.3723 191.466 42.6822C192.094 42.9921 192.581 43.4167 192.927 43.956C193.277 44.4953 193.452 45.111 193.452 45.8033C193.452 46.2661 193.364 46.7209 193.187 47.1676C193.01 47.6143 192.698 48.1094 192.251 48.6527C191.808 49.196 191.186 49.854 190.386 50.6268L188.254 52.794V52.8786H193.639V54.75H185.164ZM201.978 49.3168V54.75H199.793V42.3864H201.93V47.0529H202.039C202.256 46.5297 202.592 46.1172 203.047 45.8153C203.506 45.5095 204.089 45.3565 204.798 45.3565C205.442 45.3565 206.003 45.4914 206.482 45.761C206.961 46.0307 207.331 46.4251 207.593 46.9442C207.858 47.4634 207.991 48.0973 207.991 48.8459V54.75H205.806V49.1839C205.806 48.5601 205.645 48.0752 205.323 47.729C205.005 47.3789 204.558 47.2038 203.983 47.2038C203.596 47.2038 203.25 47.2884 202.944 47.4574C202.643 47.6224 202.405 47.8619 202.232 48.1758C202.063 48.4897 201.978 48.87 201.978 49.3168ZM214.179 54.9311C213.273 54.9311 212.488 54.7319 211.824 54.3335C211.16 53.935 210.645 53.3776 210.279 52.6612C209.917 51.9448 209.735 51.1077 209.735 50.1499C209.735 49.192 209.917 48.3529 210.279 47.6325C210.645 46.912 211.16 46.3526 211.824 45.9542C212.488 45.5558 213.273 45.3565 214.179 45.3565C215.084 45.3565 215.869 45.5558 216.533 45.9542C217.197 46.3526 217.71 46.912 218.072 47.6325C218.439 48.3529 218.622 49.192 218.622 50.1499C218.622 51.1077 218.439 51.9448 218.072 52.6612C217.71 53.3776 217.197 53.935 216.533 54.3335C215.869 54.7319 215.084 54.9311 214.179 54.9311ZM214.191 53.1804C214.682 53.1804 215.092 53.0456 215.422 52.7759C215.752 52.5022 215.998 52.136 216.159 51.6772C216.324 51.2184 216.406 50.7073 216.406 50.1438C216.406 49.5763 216.324 49.0632 216.159 48.6044C215.998 48.1416 215.752 47.7733 215.422 47.4996C215.092 47.226 214.682 47.0891 214.191 47.0891C213.688 47.0891 213.269 47.226 212.935 47.4996C212.605 47.7733 212.357 48.1416 212.192 48.6044C212.031 49.0632 211.951 49.5763 211.951 50.1438C211.951 50.7073 212.031 51.2184 212.192 51.6772C212.357 52.136 212.605 52.5022 212.935 52.7759C213.269 53.0456 213.688 53.1804 214.191 53.1804ZM226.302 50.8501V45.4773H228.487V54.75H226.368V53.1019H226.272C226.062 53.6211 225.718 54.0457 225.239 54.3757C224.764 54.7057 224.179 54.8707 223.483 54.8707C222.875 54.8707 222.338 54.7359 221.871 54.4663C221.408 54.1926 221.046 53.7962 220.784 53.277C220.522 52.7538 220.392 52.1219 220.392 51.3814V45.4773H222.577V51.0433C222.577 51.6309 222.738 52.0978 223.06 52.4439C223.382 52.79 223.805 52.9631 224.328 52.9631C224.65 52.9631 224.962 52.8846 225.263 52.7276C225.565 52.5707 225.813 52.3372 226.006 52.0273C226.203 51.7134 226.302 51.321 226.302 50.8501ZM230.649 54.75V45.4773H232.768V47.0227H232.865C233.034 46.4875 233.324 46.0749 233.734 45.7852C234.149 45.4914 234.622 45.3445 235.153 45.3445C235.274 45.3445 235.409 45.3505 235.557 45.3626C235.71 45.3706 235.837 45.3847 235.938 45.4048V47.4151C235.845 47.3829 235.698 47.3548 235.497 47.3306C235.3 47.3024 235.109 47.2884 234.924 47.2884C234.525 47.2884 234.167 47.3749 233.849 47.5479C233.535 47.717 233.288 47.9524 233.106 48.2543C232.925 48.5561 232.835 48.9042 232.835 49.2987V54.75H230.649ZM244.633 47.9283L242.641 48.1456C242.585 47.9444 242.486 47.7552 242.346 47.5781C242.209 47.401 242.024 47.2582 241.79 47.1495C241.557 47.0408 241.271 46.9865 240.933 46.9865C240.478 46.9865 240.096 47.0851 239.786 47.2823C239.48 47.4795 239.329 47.7351 239.333 48.049C239.329 48.3187 239.428 48.538 239.629 48.707C239.834 48.8761 240.172 49.0149 240.643 49.1236L242.225 49.4616C243.102 49.6508 243.754 49.9506 244.181 50.3612C244.611 50.7717 244.829 51.3089 244.833 51.973C244.829 52.5566 244.658 53.0717 244.32 53.5185C243.986 53.9612 243.521 54.3073 242.925 54.5568C242.329 54.8063 241.645 54.9311 240.872 54.9311C239.738 54.9311 238.824 54.6937 238.132 54.2188C237.439 53.7398 237.027 53.0737 236.894 52.2205L239.025 52.0153C239.122 52.4338 239.327 52.7498 239.641 52.9631C239.955 53.1764 240.363 53.283 240.866 53.283C241.386 53.283 241.802 53.1764 242.116 52.9631C242.434 52.7498 242.593 52.4862 242.593 52.1722C242.593 51.9066 242.49 51.6873 242.285 51.5142C242.084 51.3411 241.77 51.2083 241.343 51.1158L239.762 50.7837C238.872 50.5986 238.214 50.2867 237.788 49.848C237.361 49.4053 237.15 48.8459 237.154 48.1697C237.15 47.5982 237.305 47.1032 237.619 46.6847C237.937 46.2621 238.377 45.9361 238.941 45.7067C239.508 45.4732 240.162 45.3565 240.903 45.3565C241.989 45.3565 242.845 45.5879 243.468 46.0508C244.096 46.5136 244.485 47.1394 244.633 47.9283ZM252.867 42.3864V54.75H250.682V42.3864H252.867ZM257.697 54.9371C257.11 54.9371 256.581 54.8325 256.11 54.6232C255.643 54.4099 255.273 54.096 254.999 53.6815C254.729 53.2669 254.594 52.7558 254.594 52.1481C254.594 51.6249 254.691 51.1922 254.884 50.8501C255.077 50.508 255.341 50.2344 255.675 50.0291C256.009 49.8239 256.385 49.6689 256.804 49.5643C257.227 49.4556 257.663 49.3771 258.114 49.3288C258.657 49.2725 259.098 49.2222 259.436 49.1779C259.774 49.1296 260.02 49.0572 260.173 48.9606C260.33 48.86 260.408 48.705 260.408 48.4957V48.4595C260.408 48.0047 260.273 47.6526 260.004 47.4031C259.734 47.1535 259.346 47.0288 258.838 47.0288C258.303 47.0288 257.879 47.1455 257.565 47.3789C257.255 47.6123 257.045 47.888 256.937 48.206L254.896 47.9162C255.057 47.3527 255.323 46.8819 255.693 46.5036C256.063 46.1212 256.516 45.8355 257.052 45.6463C257.587 45.4531 258.178 45.3565 258.826 45.3565C259.273 45.3565 259.718 45.4089 260.161 45.5135C260.603 45.6181 261.008 45.7912 261.374 46.0327C261.74 46.2701 262.034 46.5941 262.255 47.0046C262.481 47.4151 262.593 47.9283 262.593 48.544V54.75H260.493V53.4762H260.42C260.287 53.7338 260.1 53.9753 259.859 54.2006C259.621 54.422 259.321 54.6011 258.959 54.7379C258.601 54.8707 258.18 54.9371 257.697 54.9371ZM258.265 53.3313C258.704 53.3313 259.084 53.2448 259.406 53.0717C259.728 52.8946 259.975 52.6612 260.148 52.3714C260.326 52.0817 260.414 51.7657 260.414 51.4237V50.331C260.346 50.3873 260.229 50.4396 260.064 50.4879C259.903 50.5362 259.722 50.5785 259.521 50.6147C259.319 50.6509 259.12 50.6831 258.923 50.7113C258.726 50.7395 258.555 50.7636 258.41 50.7837C258.084 50.828 257.792 50.9004 257.534 51.0011C257.277 51.1017 257.074 51.2425 256.925 51.4237C256.776 51.6007 256.701 51.8301 256.701 52.1119C256.701 52.5143 256.848 52.8182 257.142 53.0234C257.436 53.2287 257.81 53.3313 258.265 53.3313ZM269.336 45.4773V47.1676H264.006V45.4773H269.336ZM265.322 43.2557H267.507V51.9609C267.507 52.2547 267.551 52.4801 267.64 52.6371C267.732 52.79 267.853 52.8946 268.002 52.951C268.151 53.0073 268.316 53.0355 268.497 53.0355C268.634 53.0355 268.759 53.0254 268.871 53.0053C268.988 52.9852 269.077 52.9671 269.137 52.951L269.505 54.6594C269.389 54.6997 269.222 54.744 269.004 54.7923C268.791 54.8406 268.529 54.8687 268.219 54.8768C267.672 54.8929 267.179 54.8104 266.74 54.6293C266.302 54.4441 265.954 54.1584 265.696 53.772C265.442 53.3857 265.318 52.9027 265.322 52.3232V43.2557ZM275.084 54.9311C274.155 54.9311 273.352 54.7379 272.676 54.3516C272.004 53.9612 271.486 53.4098 271.124 52.6974C270.762 51.9811 270.581 51.1379 270.581 50.168C270.581 49.2141 270.762 48.377 271.124 47.6566C271.49 46.9322 272.002 46.3687 272.658 45.9663C273.314 45.5598 274.084 45.3565 274.97 45.3565C275.541 45.3565 276.08 45.4491 276.588 45.6342C277.099 45.8153 277.549 46.0971 277.94 46.4794C278.334 46.8617 278.644 47.3487 278.87 47.9403C279.095 48.5279 279.208 49.2282 279.208 50.0412V50.7113H271.607V49.2383H277.113C277.109 48.8197 277.018 48.4474 276.841 48.1214C276.664 47.7914 276.417 47.5318 276.099 47.3427C275.785 47.1535 275.418 47.0589 275 47.0589C274.553 47.0589 274.161 47.1676 273.823 47.3849C273.485 47.5982 273.221 47.88 273.032 48.2301C272.847 48.5762 272.752 48.9566 272.748 49.3711V50.657C272.748 51.1963 272.847 51.6591 273.044 52.0455C273.241 52.4278 273.517 52.7216 273.871 52.9268C274.225 53.1281 274.64 53.2287 275.115 53.2287C275.433 53.2287 275.72 53.1844 275.978 53.0959C276.235 53.0033 276.459 52.8685 276.648 52.6914C276.837 52.5143 276.98 52.295 277.077 52.0334L279.117 52.2628C278.988 52.8021 278.743 53.273 278.381 53.6754C278.022 54.0739 277.564 54.3838 277.004 54.6051C276.445 54.8224 275.805 54.9311 275.084 54.9311ZM280.971 54.75V45.4773H283.09V47.0227H283.187C283.356 46.4875 283.646 46.0749 284.056 45.7852C284.471 45.4914 284.944 45.3445 285.475 45.3445C285.596 45.3445 285.731 45.3505 285.879 45.3626C286.032 45.3706 286.159 45.3847 286.26 45.4048V47.4151C286.167 47.3829 286.02 47.3548 285.819 47.3306C285.622 47.3024 285.431 47.2884 285.246 47.2884C284.847 47.2884 284.489 47.3749 284.171 47.5479C283.857 47.717 283.61 47.9524 283.428 48.2543C283.247 48.5561 283.157 48.9042 283.157 49.2987V54.75H280.971Z" fill="#797979"/>
<path d="M56.5429 64.8636V76.5H54.4349V64.8636H56.5429ZM66.3502 76.6705C65.479 76.6705 64.7309 76.4792 64.1059 76.0966C63.4847 75.714 63.0055 75.1856 62.6684 74.5114C62.335 73.8333 62.1684 73.053 62.1684 72.1705C62.1684 71.2841 62.3388 70.5019 62.6797 69.8239C63.0207 69.142 63.5017 68.6117 64.1229 68.233C64.7479 67.8504 65.4866 67.6591 66.3388 67.6591C67.0472 67.6591 67.6741 67.7898 68.2195 68.0511C68.7688 68.3087 69.2063 68.6742 69.532 69.1477C69.8578 69.6174 70.0434 70.1667 70.0888 70.7955H68.1229C68.0434 70.375 67.854 70.0246 67.5547 69.7443C67.2593 69.4602 66.8635 69.3182 66.3672 69.3182C65.9468 69.3182 65.5775 69.4318 65.2593 69.6591C64.9411 69.8826 64.693 70.2045 64.515 70.625C64.3407 71.0455 64.2536 71.5492 64.2536 72.1364C64.2536 72.7311 64.3407 73.2424 64.515 73.6705C64.6892 74.0947 64.9335 74.4223 65.2479 74.6534C65.5661 74.8807 65.9392 74.9943 66.3672 74.9943C66.6703 74.9943 66.9411 74.9375 67.1797 74.8239C67.4222 74.7064 67.6248 74.5379 67.7877 74.3182C67.9506 74.0985 68.0623 73.8314 68.1229 73.517H70.0888C70.0396 74.1345 69.8578 74.6818 69.5434 75.1591C69.229 75.6326 68.801 76.0038 68.2593 76.2727C67.7176 76.5379 67.0813 76.6705 66.3502 76.6705ZM74.2091 76.6761C73.6561 76.6761 73.158 76.5777 72.7148 76.3807C72.2754 76.1799 71.9269 75.8845 71.6693 75.4943C71.4156 75.1042 71.2887 74.6231 71.2887 74.0511C71.2887 73.5587 71.3796 73.1515 71.5614 72.8295C71.7432 72.5076 71.9913 72.25 72.3057 72.0568C72.6201 71.8636 72.9743 71.7178 73.3682 71.6193C73.7659 71.517 74.1769 71.4432 74.6012 71.3977C75.1125 71.3447 75.5273 71.2973 75.8455 71.2557C76.1637 71.2102 76.3947 71.142 76.5387 71.0511C76.6864 70.9564 76.7603 70.8106 76.7603 70.6136V70.5795C76.7603 70.1515 76.6334 69.8201 76.3796 69.5852C76.1258 69.3504 75.7603 69.233 75.283 69.233C74.7792 69.233 74.3796 69.3428 74.0841 69.5625C73.7925 69.7822 73.5955 70.0417 73.4932 70.3409L71.5728 70.0682C71.7243 69.5379 71.9743 69.0947 72.3228 68.7386C72.6712 68.3788 73.0974 68.1098 73.6012 67.9318C74.105 67.75 74.6618 67.6591 75.2716 67.6591C75.6921 67.6591 76.1106 67.7083 76.5273 67.8068C76.944 67.9053 77.3246 68.0682 77.6693 68.2955C78.014 68.5189 78.2906 68.8239 78.4989 69.2102C78.711 69.5966 78.8171 70.0795 78.8171 70.6591V76.5H76.8398V75.3011H76.7716C76.6466 75.5436 76.4705 75.7708 76.2432 75.983C76.0197 76.1913 75.7375 76.3598 75.3966 76.4886C75.0595 76.6136 74.6637 76.6761 74.2091 76.6761ZM74.7432 75.1648C75.1561 75.1648 75.514 75.0833 75.8171 74.9205C76.1201 74.7538 76.3531 74.5341 76.5159 74.2614C76.6826 73.9886 76.7659 73.6913 76.7659 73.3693V72.3409C76.7015 72.3939 76.5917 72.4432 76.4364 72.4886C76.2849 72.5341 76.1144 72.5739 75.925 72.608C75.7356 72.642 75.5481 72.6723 75.3625 72.6989C75.1769 72.7254 75.0159 72.7481 74.8796 72.767C74.5728 72.8087 74.2981 72.8769 74.0557 72.9716C73.8133 73.0663 73.622 73.1989 73.4818 73.3693C73.3417 73.536 73.2716 73.7519 73.2716 74.017C73.2716 74.3958 73.4099 74.6818 73.6864 74.875C73.9629 75.0682 74.3152 75.1648 74.7432 75.1648ZM82.8621 71.3864V76.5H80.8053V67.7727H82.7712V69.2557H82.8734C83.0742 68.767 83.3943 68.3788 83.8337 68.0909C84.2768 67.803 84.8242 67.6591 85.4757 67.6591C86.078 67.6591 86.6026 67.7879 87.0496 68.0455C87.5003 68.303 87.8488 68.6761 88.095 69.1648C88.345 69.6534 88.4681 70.2462 88.4643 70.9432V76.5H86.4075V71.2614C86.4075 70.678 86.256 70.2216 85.953 69.892C85.6537 69.5625 85.239 69.3977 84.7087 69.3977C84.3488 69.3977 84.0287 69.4773 83.7484 69.6364C83.4719 69.7917 83.2541 70.017 83.095 70.3125C82.9397 70.608 82.8621 70.9659 82.8621 71.3864ZM98.7845 67.7727V69.3636H93.6254V67.7727H98.7845ZM94.9151 76.5V66.9489C94.9151 66.3617 95.0364 65.8731 95.2788 65.483C95.525 65.0928 95.8545 64.8011 96.2674 64.608C96.6803 64.4148 97.1386 64.3182 97.6424 64.3182C97.9985 64.3182 98.3148 64.3466 98.5913 64.4034C98.8678 64.4602 99.0723 64.5114 99.2049 64.5568L98.7958 66.1477C98.7087 66.1212 98.5989 66.0947 98.4663 66.0682C98.3337 66.0379 98.186 66.0227 98.0231 66.0227C97.6405 66.0227 97.3697 66.1155 97.2106 66.3011C97.0553 66.483 96.9776 66.7443 96.9776 67.0852V76.5H94.9151ZM100.315 76.5V67.7727H102.372V76.5H100.315ZM101.349 66.5341C101.024 66.5341 100.743 66.4261 100.508 66.2102C100.274 65.9905 100.156 65.7273 100.156 65.4205C100.156 65.1098 100.274 64.8466 100.508 64.6307C100.743 64.411 101.024 64.3011 101.349 64.3011C101.679 64.3011 101.959 64.411 102.19 64.6307C102.425 64.8466 102.543 65.1098 102.543 65.4205C102.543 65.7273 102.425 65.9905 102.19 66.2102C101.959 66.4261 101.679 66.5341 101.349 66.5341ZM106.464 71.3864V76.5H104.407V67.7727H106.373V69.2557H106.475C106.676 68.767 106.996 68.3788 107.436 68.0909C107.879 67.803 108.426 67.6591 109.078 67.6591C109.68 67.6591 110.204 67.7879 110.651 68.0455C111.102 68.303 111.451 68.6761 111.697 69.1648C111.947 69.6534 112.07 70.2462 112.066 70.9432V76.5H110.009V71.2614C110.009 70.678 109.858 70.2216 109.555 69.892C109.256 69.5625 108.841 69.3977 108.311 69.3977C107.951 69.3977 107.631 69.4773 107.35 69.6364C107.074 69.7917 106.856 70.017 106.697 70.3125C106.542 70.608 106.464 70.9659 106.464 71.3864ZM114.077 76.5V67.7727H116.134V76.5H114.077ZM115.111 66.5341C114.785 66.5341 114.505 66.4261 114.27 66.2102C114.035 65.9905 113.918 65.7273 113.918 65.4205C113.918 65.1098 114.035 64.8466 114.27 64.6307C114.505 64.411 114.785 64.3011 115.111 64.3011C115.441 64.3011 115.721 64.411 115.952 64.6307C116.187 64.8466 116.304 65.1098 116.304 65.4205C116.304 65.7273 116.187 65.9905 115.952 66.2102C115.721 66.4261 115.441 66.5341 115.111 66.5341ZM125.067 70.0795L123.192 70.2841C123.139 70.0947 123.046 69.9167 122.913 69.75C122.785 69.5833 122.61 69.4489 122.391 69.3466C122.171 69.2443 121.902 69.1932 121.584 69.1932C121.156 69.1932 120.796 69.286 120.504 69.4716C120.216 69.6572 120.074 69.8977 120.078 70.1932C120.074 70.447 120.167 70.6534 120.357 70.8125C120.55 70.9716 120.868 71.1023 121.311 71.2045L122.8 71.5227C123.625 71.7008 124.239 71.983 124.641 72.3693C125.046 72.7557 125.25 73.2614 125.254 73.8864C125.25 74.4356 125.089 74.9205 124.771 75.3409C124.457 75.7576 124.019 76.0833 123.459 76.3182C122.898 76.553 122.254 76.6705 121.527 76.6705C120.459 76.6705 119.599 76.447 118.947 76C118.296 75.5492 117.908 74.9223 117.783 74.1193L119.788 73.9261C119.879 74.3201 120.072 74.6174 120.368 74.8182C120.663 75.0189 121.048 75.1193 121.521 75.1193C122.01 75.1193 122.402 75.0189 122.697 74.8182C122.997 74.6174 123.146 74.3693 123.146 74.0739C123.146 73.8239 123.05 73.6174 122.857 73.4545C122.667 73.2917 122.372 73.1667 121.97 73.0795L120.482 72.767C119.644 72.5928 119.025 72.2992 118.624 71.8864C118.222 71.4697 118.023 70.9432 118.027 70.3068C118.023 69.7689 118.169 69.303 118.464 68.9091C118.764 68.5114 119.178 68.2045 119.709 67.9886C120.243 67.7689 120.858 67.6591 121.555 67.6591C122.578 67.6591 123.383 67.8769 123.97 68.3125C124.561 68.7481 124.927 69.3371 125.067 70.0795ZM128.927 71.3864V76.5H126.87V64.8636H128.882V69.2557H128.984C129.188 68.7633 129.505 68.375 129.933 68.0909C130.365 67.803 130.914 67.6591 131.58 67.6591C132.187 67.6591 132.715 67.786 133.166 68.0398C133.616 68.2936 133.965 68.6648 134.211 69.1534C134.461 69.642 134.586 70.2386 134.586 70.9432V76.5H132.529V71.2614C132.529 70.6742 132.378 70.2178 132.075 69.892C131.776 69.5625 131.355 69.3977 130.813 69.3977C130.45 69.3977 130.124 69.4773 129.836 69.6364C129.552 69.7917 129.329 70.017 129.166 70.3125C129.007 70.608 128.927 70.9659 128.927 71.3864ZM140.492 76.5V67.7727H142.548V76.5H140.492ZM141.526 66.5341C141.2 66.5341 140.92 66.4261 140.685 66.2102C140.45 65.9905 140.332 65.7273 140.332 65.4205C140.332 65.1098 140.45 64.8466 140.685 64.6307C140.92 64.411 141.2 64.3011 141.526 64.3011C141.855 64.3011 142.135 64.411 142.367 64.6307C142.601 64.8466 142.719 65.1098 142.719 65.4205C142.719 65.7273 142.601 65.9905 142.367 66.2102C142.135 66.4261 141.855 66.5341 141.526 66.5341ZM148.941 67.7727V69.3636H143.924V67.7727H148.941ZM145.163 65.6818H147.22V73.875C147.22 74.1515 147.261 74.3636 147.345 74.5114C147.432 74.6553 147.545 74.7538 147.686 74.8068C147.826 74.8598 147.981 74.8864 148.152 74.8864C148.28 74.8864 148.398 74.8769 148.504 74.858C148.614 74.839 148.697 74.822 148.754 74.8068L149.1 76.4148C148.991 76.4527 148.833 76.4943 148.629 76.5398C148.428 76.5852 148.182 76.6117 147.89 76.6193C147.375 76.6345 146.911 76.5568 146.498 76.3864C146.085 76.2121 145.758 75.9432 145.515 75.5795C145.277 75.2159 145.159 74.7614 145.163 74.2159V65.6818ZM154.561 76.5V64.8636H156.618V69.2159H156.703C156.809 69.0038 156.959 68.7784 157.152 68.5398C157.345 68.2973 157.607 68.0909 157.936 67.9205C158.266 67.7462 158.686 67.6591 159.198 67.6591C159.872 67.6591 160.48 67.8314 161.021 68.1761C161.567 68.517 161.999 69.0227 162.317 69.6932C162.639 70.3598 162.8 71.178 162.8 72.1477C162.8 73.1061 162.643 73.9205 162.328 74.5909C162.014 75.2614 161.586 75.7727 161.044 76.125C160.502 76.4773 159.889 76.6534 159.203 76.6534C158.703 76.6534 158.288 76.5701 157.959 76.4034C157.629 76.2367 157.364 76.036 157.163 75.8011C156.966 75.5625 156.813 75.3371 156.703 75.125H156.584V76.5H154.561ZM156.578 72.1364C156.578 72.7008 156.658 73.1951 156.817 73.6193C156.98 74.0436 157.213 74.375 157.516 74.6136C157.823 74.8485 158.194 74.9659 158.629 74.9659C159.084 74.9659 159.465 74.8447 159.771 74.6023C160.078 74.3561 160.309 74.0208 160.465 73.5966C160.624 73.1686 160.703 72.6818 160.703 72.1364C160.703 71.5947 160.626 71.1136 160.47 70.6932C160.315 70.2727 160.084 69.9432 159.777 69.7045C159.47 69.4659 159.088 69.3466 158.629 69.3466C158.19 69.3466 157.817 69.4621 157.51 69.6932C157.203 69.9242 156.97 70.2481 156.811 70.6648C156.656 71.0814 156.578 71.572 156.578 72.1364ZM165.45 79.7727C165.17 79.7727 164.91 79.75 164.672 79.7045C164.437 79.6629 164.249 79.6136 164.109 79.5568L164.586 77.9545C164.886 78.0417 165.153 78.0833 165.387 78.0795C165.622 78.0758 165.829 78.0019 166.007 77.858C166.189 77.7178 166.342 77.483 166.467 77.1534L166.643 76.6818L163.478 67.7727H165.66L167.672 74.3636H167.762L169.779 67.7727H171.967L168.473 77.5568C168.31 78.0189 168.094 78.4148 167.825 78.7443C167.556 79.0777 167.226 79.3314 166.836 79.5057C166.45 79.6837 165.988 79.7727 165.45 79.7727ZM181.557 67.7727V69.3636H176.54V67.7727H181.557ZM177.779 65.6818H179.835V73.875C179.835 74.1515 179.877 74.3636 179.96 74.5114C180.047 74.6553 180.161 74.7538 180.301 74.8068C180.441 74.8598 180.597 74.8864 180.767 74.8864C180.896 74.8864 181.013 74.8769 181.119 74.858C181.229 74.839 181.313 74.822 181.369 74.8068L181.716 76.4148C181.606 76.4527 181.449 76.4943 181.244 76.5398C181.044 76.5852 180.797 76.6117 180.506 76.6193C179.991 76.6345 179.527 76.5568 179.114 76.3864C178.701 76.2121 178.373 75.9432 178.131 75.5795C177.892 75.2159 177.775 74.7614 177.779 74.2159V65.6818ZM186.91 76.6705C186.058 76.6705 185.319 76.483 184.694 76.108C184.069 75.733 183.584 75.2083 183.24 74.5341C182.899 73.8598 182.728 73.072 182.728 72.1705C182.728 71.2689 182.899 70.4792 183.24 69.8011C183.584 69.1231 184.069 68.5966 184.694 68.2216C185.319 67.8466 186.058 67.6591 186.91 67.6591C187.762 67.6591 188.501 67.8466 189.126 68.2216C189.751 68.5966 190.234 69.1231 190.575 69.8011C190.92 70.4792 191.092 71.2689 191.092 72.1705C191.092 73.072 190.92 73.8598 190.575 74.5341C190.234 75.2083 189.751 75.733 189.126 76.108C188.501 76.483 187.762 76.6705 186.91 76.6705ZM186.922 75.0227C187.384 75.0227 187.77 74.8958 188.081 74.642C188.391 74.3845 188.622 74.0398 188.774 73.608C188.929 73.1761 189.007 72.6951 189.007 72.1648C189.007 71.6307 188.929 71.1477 188.774 70.7159C188.622 70.2803 188.391 69.9337 188.081 69.6761C187.77 69.4186 187.384 69.2898 186.922 69.2898C186.448 69.2898 186.054 69.4186 185.74 69.6761C185.429 69.9337 185.196 70.2803 185.041 70.7159C184.889 71.1477 184.814 71.6307 184.814 72.1648C184.814 72.6951 184.889 73.1761 185.041 73.608C185.196 74.0398 185.429 74.3845 185.74 74.642C186.054 74.8958 186.448 75.0227 186.922 75.0227ZM195.996 76.6534C195.311 76.6534 194.697 76.4773 194.155 76.125C193.614 75.7727 193.186 75.2614 192.871 74.5909C192.557 73.9205 192.4 73.1061 192.4 72.1477C192.4 71.178 192.559 70.3598 192.877 69.6932C193.199 69.0227 193.633 68.517 194.178 68.1761C194.724 67.8314 195.332 67.6591 196.002 67.6591C196.513 67.6591 196.934 67.7462 197.263 67.9205C197.593 68.0909 197.854 68.2973 198.048 68.5398C198.241 68.7784 198.39 69.0038 198.496 69.2159H198.582V64.8636H200.644V76.5H198.621V75.125H198.496C198.39 75.3371 198.237 75.5625 198.036 75.8011C197.835 76.036 197.57 76.2367 197.241 76.4034C196.911 76.5701 196.496 76.6534 195.996 76.6534ZM196.57 74.9659C197.006 74.9659 197.377 74.8485 197.684 74.6136C197.991 74.375 198.224 74.0436 198.383 73.6193C198.542 73.1951 198.621 72.7008 198.621 72.1364C198.621 71.572 198.542 71.0814 198.383 70.6648C198.227 70.2481 197.996 69.9242 197.69 69.6932C197.387 69.4621 197.013 69.3466 196.57 69.3466C196.112 69.3466 195.729 69.4659 195.423 69.7045C195.116 69.9432 194.885 70.2727 194.729 70.6932C194.574 71.1136 194.496 71.5947 194.496 72.1364C194.496 72.6818 194.574 73.1686 194.729 73.5966C194.888 74.0208 195.121 74.3561 195.428 74.6023C195.739 74.8447 196.12 74.9659 196.57 74.9659ZM205.267 76.6761C204.714 76.6761 204.216 76.5777 203.773 76.3807C203.334 76.1799 202.985 75.8845 202.727 75.4943C202.474 75.1042 202.347 74.6231 202.347 74.0511C202.347 73.5587 202.438 73.1515 202.62 72.8295C202.801 72.5076 203.049 72.25 203.364 72.0568C203.678 71.8636 204.032 71.7178 204.426 71.6193C204.824 71.517 205.235 71.4432 205.659 71.3977C206.171 71.3447 206.585 71.2973 206.904 71.2557C207.222 71.2102 207.453 71.142 207.597 71.0511C207.745 70.9564 207.818 70.8106 207.818 70.6136V70.5795C207.818 70.1515 207.691 69.8201 207.438 69.5852C207.184 69.3504 206.818 69.233 206.341 69.233C205.837 69.233 205.438 69.3428 205.142 69.5625C204.851 69.7822 204.654 70.0417 204.551 70.3409L202.631 70.0682C202.782 69.5379 203.032 69.0947 203.381 68.7386C203.729 68.3788 204.156 68.1098 204.659 67.9318C205.163 67.75 205.72 67.6591 206.33 67.6591C206.75 67.6591 207.169 67.7083 207.585 67.8068C208.002 67.9053 208.383 68.0682 208.727 68.2955C209.072 68.5189 209.349 68.8239 209.557 69.2102C209.769 69.5966 209.875 70.0795 209.875 70.6591V76.5H207.898V75.3011H207.83C207.705 75.5436 207.529 75.7708 207.301 75.983C207.078 76.1913 206.796 76.3598 206.455 76.4886C206.118 76.6136 205.722 76.6761 205.267 76.6761ZM205.801 75.1648C206.214 75.1648 206.572 75.0833 206.875 74.9205C207.178 74.7538 207.411 74.5341 207.574 74.2614C207.741 73.9886 207.824 73.6913 207.824 73.3693V72.3409C207.76 72.3939 207.65 72.4432 207.495 72.4886C207.343 72.5341 207.173 72.5739 206.983 72.608C206.794 72.642 206.606 72.6723 206.421 72.6989C206.235 72.7254 206.074 72.7481 205.938 72.767C205.631 72.8087 205.356 72.8769 205.114 72.9716C204.871 73.0663 204.68 73.1989 204.54 73.3693C204.4 73.536 204.33 73.7519 204.33 74.017C204.33 74.3958 204.468 74.6818 204.745 74.875C205.021 75.0682 205.373 75.1648 205.801 75.1648ZM212.829 79.7727C212.549 79.7727 212.29 79.75 212.051 79.7045C211.816 79.6629 211.629 79.6136 211.488 79.5568L211.966 77.9545C212.265 78.0417 212.532 78.0833 212.767 78.0795C213.002 78.0758 213.208 78.0019 213.386 77.858C213.568 77.7178 213.721 77.483 213.846 77.1534L214.022 76.6818L210.858 67.7727H213.04L215.051 74.3636H215.142L217.159 67.7727H219.346L215.852 77.5568C215.689 78.0189 215.473 78.4148 215.204 78.7443C214.935 79.0777 214.606 79.3314 214.216 79.5057C213.829 79.6837 213.367 79.7727 212.829 79.7727Z" fill="#A8A8A8"/>
<path d="M315 32.125V26.548L321.923 24.875L315 23.202V17.625L332.212 24.875L315 32.125Z" fill="#BFBFBF"/>
</svg>
